<?xml version="1.0" encoding="utf-8"?>
<!-- Generator: Adobe Illustrator 26.0.0, SVG Export Plug-In . SVG Version: 6.00 Build 0)  -->
<svg version="1.1" id="Layer_1" xmlns="http://www.w3.org/2000/svg" xmlns:xlink="http://www.w3.org/1999/xlink" x="0px" y="0px"
	 viewBox="0 0 2969.9 991.9" style="enable-background:new 0 0 2969.9 991.9;" xml:space="preserve">
<style type="text/css">
	.st0{fill:#FFFFFF;}
</style>
<path class="st0" d="M2969.9,794.5c-93.4,0-103.1-26.1-103-102.3l0.5-378.4l102.5,0.2v-93.4l-102.4-0.2l0.2-169.9l-124.8-0.2
	l-0.2,169.9l-103.6-0.1l-0.1,93.4l102.9,0.1l-0.5,397.6c-0.2,134.3,63.1,196.8,199.4,196.8c4,0,26.5,0,29.1,0L2969.9,794.5
	L2969.9,794.5z"/>
<path class="st0" d="M2601.3,524.1c0-21.8-1.2-43.5-4.2-65.1c-4.3-29.8-11.7-58.8-23.7-86.5c-26-59.7-67.9-103.9-128.3-129.4
	c-46.1-19.5-94.4-25.6-144-21c-43,4.1-83.3,16.9-120.8,38.4c-32.6,18.6-59.9,42.9-78.1,76.3c-0.1,0.3-3.3,7.5-5.2,11.8
	c-26.2-47.7-64.5-83.5-116.5-105.5c-46.1-19.5-94.4-25.6-144-21c-43,4.1-83.3,16.9-120.8,38.4c-15.3,8.7-29.4,18.7-41.9,30.3v-12.4
	c-0.1-5-0.7-10.1-2-14.9c-6.1-22.7-25.7-38.2-49.4-38.6l-74.7-0.1c0,0-1.5,678,0,683.3c41.6,0,83.4,0,126.1,0c0-3.5,0-6.2,0-8.9
	c0-119.6,0-239.3,0-358.9V535c0-0.1,0-0.3,0-0.5V485c0-0.1,0-0.2,0-0.2c0-0.1,0-0.2,0.1-0.4c0.7-39.2,17.1-74.7,46.3-100
	c0.3-0.3,0.6-0.6,1-0.8c27.8-23.6,66.9-38.1,115-38.1c8.1,0,16,0.4,23.7,1.2c12.3,1.1,24.3,3.4,36.2,7.3
	c67.8,20.9,114.1,80.1,114.1,178.8c0,1.2,0,2.3,0,3.5c0,0.3,0,0.6,0,0.8c0,123.5,0,247,0,370.4h2.4c0,0.3,0,0.5,0.1,0.6
	c41.6,0,83.2,0,125.9,0c0-3.5,0-6.2,0-8.9c0-119.6,0-239.3,0-358.9v-5.2c0-0.1,0-0.3,0-0.7v-49.2c0-0.1,0-0.3,0.1-0.4
	c0-0.1,0-0.2,0.1-0.4c0.7-39.2,17.1-74.7,46.3-100c0.3-0.3,0.6-0.6,1-0.8c27.8-23.6,66.9-38.1,115-38.1c8.1,0,16,0.4,23.7,1.2
	c12.3,1.1,24.3,3.4,36.2,7.3c67.8,20.9,114.1,80.1,114.1,178.8c0,1.2,0,2.3,0,3.5c0,0.3,0,0.6,0,0.8c0,123.5,0,247,0,370.4h126.5
	C2601.2,779.7,2601.2,651.9,2601.3,524.1z"/>
<path class="st0" d="M954.8,708.4c40,0,78.6,0,117.7,0c0.4,3.1,0.7,6,1.1,8.9c4.4,33.1,21.9,57.7,49.6,75.4
	c17.9,11.4,37.7,17.8,58.5,20.5c29.9,4,59.5,2.2,88.4-6.5c21.9-6.6,41.6-17,56.6-34.7c20.8-24.6,25.7-52.5,16.2-83
	c-5.1-16.4-16.1-28.6-30-38.3c-16.6-11.6-35.3-18.2-54.8-22.8c-32.1-7.6-64.3-14.5-96.3-22.6c-37-9.4-72.6-22.5-104.7-43.9
	c-46.1-30.7-71.1-73.8-76.3-128.9c-3-31.8-0.1-62.7,11.7-92.5c18.6-46.8,51.5-80.6,95.6-103.9c30.4-16,62.9-24.8,97.1-27.8
	c45.6-4,90.1,0.8,133.2,16.6c33.9,12.4,63.8,30.9,87.7,58.4c22.7,26.2,36.1,56.6,40.9,90.8c1.4,9.9,1.9,19.9,2.8,29.7
	c-5.7,1.9-114.3,2.3-122.5,0.7c-0.5-3.4-0.9-7.1-1.6-10.6c-5-24.6-19.4-42.6-39.9-56.1c-21.5-14-45.3-20.4-71-20.1
	c-23.2,0.3-45,5.3-64.6,18c-27.6,17.8-42.6,43.1-43.6,76c-0.6,20.9,7.7,38.3,23,52.4c13.7,12.7,30,21.2,47.7,26.4
	c21.1,6.1,42.5,11,63.8,16.5c28.1,7.3,56.4,14.1,84.3,22.2c23.8,6.9,46.2,17.7,66.9,31.5c45.2,30.2,72.3,71.8,79.9,125.9
	c5.2,37.4,1.6,73.6-14.4,108.1c-14.9,32.2-37.9,57.6-66.7,78c-34,24.1-72.1,38.6-112.8,46.6c-25.5,5-51.3,7.4-77.2,6.4
	c-60.2-2.3-115.4-19.5-163.4-56.7c-45.5-35.4-72.5-81.8-80.9-138.9C955.9,723.2,955.5,716.1,954.8,708.4z"/>
<path class="st0" d="M766.7,418.5c5.2,23.5,7.9,47.8,7.9,72.4c0,82.3-29.8,160.1-84.2,221c-20.8-13.1-44.9-21.2-70.7-22.9
	l-25.8-266.9c15.5-7.7,27.7-21,33.8-37.2H872c-4-16.4-9-32.6-15-48.5H627.7c-9.8-25.9-34.9-44.3-64.1-44.3
	c-37.8,0-68.6,30.8-68.6,68.6c0,31.6,21.5,58.3,50.6,66.2l25.8,266.9c-1.7,0.5-3.4,0.9-5.1,1.4L362.2,275.6
	c37-26.1,61.8-68.4,64.1-116.5c5.3-0.3,10.7-0.4,16.1-0.4c88.7,0,172.1,34.5,234.9,97.3c14.5,14.5,27.5,30.1,38.9,46.7h126.6
	c-21.8-46.3-51.2-88.1-87.6-124.6c-40.6-40.6-87.9-72.5-140.6-94.8C560,60.2,502.1,48.5,442.4,48.5c-18,0-35.9,1.1-53.6,3.2
	C361,20.1,320.3,0,274.9,0c-83.6,0-151.6,68-151.6,151.6c0,10.2,1,20.2,2.9,29.8c-39,39.8-69.8,86-91.4,137.2
	C11.7,373.2,0,431.1,0,490.8c0,10.4,0.4,20.7,1.1,31h110.5c-0.9-10.2-1.4-20.6-1.4-31c0-79.4,27.7-154.6,78.5-214.5
	c21.3,14.8,46.6,24.2,73.9,26.4l17.2,214.9c-16,7.6-28.5,21.1-34.8,37.7H4.8c2.4,16.4,5.7,32.6,9.9,48.5H245
	c9.8,25.9,34.9,44.3,64.1,44.3c37.8,0,68.6-30.8,68.6-68.6c0-31.2-20.9-57.6-49.5-65.9L311.1,299c2.5-0.6,5.1-1.3,7.5-2.1
	l204.1,419.5c-34.3,24.3-58.2,62.4-63.3,106.2c-5.6,0.3-11.3,0.4-16.9,0.4c-88.7,0-172.1-34.5-234.9-97.3
	c-26.2-26.2-47.4-55.9-63.3-88.1H25c3,8.6,6.3,17.1,9.9,25.5c22.3,52.7,54.2,100,94.8,140.6s87.9,72.5,140.6,94.8
	c54.6,23.1,112.5,34.8,172.2,34.8c15.5,0,30.8-0.8,46-2.4c27.7,37,71.8,61,121.5,61c83.6,0,151.6-68,151.6-151.6
	c0-13.1-1.7-25.9-4.9-38.1c39.9-40.3,71.3-87.1,93.3-139.1c23.1-54.6,34.8-112.5,34.8-172.2c0-24.5-2-48.6-5.9-72.4L766.7,418.5
	L766.7,418.5z M355.6,579.7c0,25.6-20.8,46.4-46.4,46.4s-46.4-20.8-46.4-46.4s20.8-46.4,46.4-46.4S355.6,554.2,355.6,579.7z
	 M275,253.2c-55.9,0-101.4-45.5-101.4-101.4S219,50.3,275,50.3s101.4,45.5,101.4,101.4S330.9,253.2,275,253.2z M563.5,407
	c-25.6,0-46.4-20.8-46.4-46.4s20.8-46.4,46.4-46.4s46.4,20.8,46.4,46.4S589.1,407,563.5,407z M609.9,941.7
	c-55.9,0-101.4-45.5-101.4-101.4S554,738.9,609.9,738.9s101.4,45.5,101.4,101.4S665.9,941.7,609.9,941.7z"/>
</svg>
