<?xml version="1.0" encoding="utf-8"?>
<!-- Generator: Adobe Illustrator 26.0.0, SVG Export Plug-In . SVG Version: 6.00 Build 0)  -->
<svg version="1.1" id="Layer_1" xmlns="http://www.w3.org/2000/svg" xmlns:xlink="http://www.w3.org/1999/xlink" x="0px" y="0px"
	 viewBox="0 0 884.8 991.9" style="enable-background:new 0 0 884.8 991.9;" xml:space="preserve">
<style type="text/css">
	.st0{fill:#37246B;}
</style>
<path class="st0" d="M766.7,418.5c5.2,23.5,7.9,47.8,7.9,72.4c0,82.3-29.8,160.1-84.2,221c-20.8-13.1-44.9-21.2-70.7-22.9
	l-25.8-266.9c15.5-7.7,27.7-21,33.8-37.2H872c-4-16.4-9-32.6-15-48.5H627.7c-9.8-25.9-34.9-44.3-64.1-44.3
	c-37.8,0-68.6,30.8-68.6,68.6c0,31.6,21.5,58.3,50.6,66.2l25.8,266.9c-1.7,0.5-3.4,0.9-5.1,1.4L362.2,275.6
	c37-26.1,61.8-68.4,64.1-116.5c5.3-0.3,10.7-0.4,16.1-0.4c88.7,0,172.1,34.5,234.9,97.3c14.5,14.5,27.5,30.1,38.9,46.7h126.6
	c-21.8-46.3-51.2-88.1-87.6-124.6c-40.6-40.6-87.9-72.5-140.6-94.8C560,60.2,502.1,48.5,442.4,48.5c-18,0-35.9,1.1-53.6,3.2
	C361,20.1,320.3,0,274.9,0c-83.6,0-151.6,68-151.6,151.6c0,10.2,1,20.2,2.9,29.8c-39,39.8-69.8,86-91.4,137.2
	C11.7,373.2,0,431.1,0,490.8c0,10.4,0.4,20.7,1.1,31h110.5c-0.9-10.2-1.4-20.6-1.4-31c0-79.4,27.7-154.6,78.5-214.5
	c21.3,14.8,46.6,24.2,73.9,26.4l17.2,214.9c-16,7.6-28.5,21.1-34.8,37.7H4.8c2.4,16.4,5.7,32.6,9.9,48.5H245
	c9.8,25.9,34.9,44.3,64.1,44.3c37.8,0,68.6-30.8,68.6-68.6c0-31.2-20.9-57.6-49.5-65.9L311.1,299c2.5-0.6,5.1-1.3,7.5-2.1
	l204.1,419.5c-34.3,24.3-58.2,62.4-63.3,106.2c-5.6,0.3-11.3,0.4-16.9,0.4c-88.7,0-172.1-34.5-234.9-97.3
	c-26.2-26.2-47.4-55.9-63.3-88.1H25c3,8.6,6.3,17.1,9.9,25.5c22.3,52.7,54.2,100,94.8,140.6s87.9,72.5,140.6,94.8
	c54.6,23.1,112.5,34.8,172.2,34.8c15.5,0,30.8-0.8,46-2.4c27.7,37,71.8,61,121.5,61c83.6,0,151.6-68,151.6-151.6
	c0-13.1-1.7-25.9-4.9-38.1c39.9-40.3,71.3-87.1,93.3-139.1c23.1-54.6,34.8-112.5,34.8-172.2c0-24.5-2-48.6-5.9-72.4L766.7,418.5
	L766.7,418.5z M355.6,579.7c0,25.6-20.8,46.4-46.4,46.4s-46.4-20.8-46.4-46.4s20.8-46.4,46.4-46.4S355.6,554.2,355.6,579.7z
	 M275,253.2c-55.9,0-101.4-45.5-101.4-101.4S219,50.3,275,50.3s101.4,45.5,101.4,101.4S330.9,253.2,275,253.2z M563.5,407
	c-25.6,0-46.4-20.8-46.4-46.4s20.8-46.4,46.4-46.4s46.4,20.8,46.4,46.4S589.1,407,563.5,407z M609.9,941.7
	c-55.9,0-101.4-45.5-101.4-101.4S554,738.9,609.9,738.9s101.4,45.5,101.4,101.4S665.9,941.7,609.9,941.7z"/>
</svg>
