<?xml version="1.0" encoding="utf-8"?>
<!-- Generator: Adobe Illustrator 26.0.3, SVG Export Plug-In . SVG Version: 6.00 Build 0)  -->
<svg version="1.1" id="Logo" xmlns="http://www.w3.org/2000/svg" xmlns:xlink="http://www.w3.org/1999/xlink" x="0px" y="0px"
	 viewBox="0 0 118.3 26" style="enable-background:new 0 0 118.3 26;" xml:space="preserve">
<style type="text/css">
	.st0{fill:#003057;}
</style>
<g>
	<path class="st0" d="M113.9,6.8L113.9,6.8L112,8.4l0,0c1,1.2,1.6,2.7,1.6,4.3c0,3.7-3.1,6.8-6.9,6.8c-1.8,0-3.4-0.7-4.7-1.9v-2.8
		c0.8,1.7,2.5,2.8,4.5,2.8c2.8,0,5-2.2,5-5c0-2-1.2-3.8-3-4.6c0,0,0,0,0.1,0c1-0.5,1.7-0.9,1.7-0.9l8-6.5c-1.9-0.6-4.4-0.8-6.7-0.4
		c-3,0.4-5.6,1.5-5.6,1.5c-2.4-1-3.9-1.3-6.9-1.4c-3,0-4.5,0.3-6.9,1.4c0,0-2.6-1.1-5.6-1.5c-2.3-0.3-4.8-0.1-6.7,0.4l8,6.5
		c0,0,0.6,0.4,1.7,0.9c0,0,0.1,0,0.1,0.1c-1.7,0.8-3,2.5-3,4.5c0,2.8,2.3,5,5,5c1.9,0,3.6-1.1,4.4-2.6v-4.8l0,0c0,0,0,0,0-0.1l0,0
		c0-0.8,0.7-1.5,1.5-1.5s1.5,0.7,1.5,1.5l0,0l0,0v11.6l-2.9-2.8l-0.6-0.6c-0.9,0.9-2.1,1.1-3.8,1.1c-3.8,0-6.9-3-6.9-6.8
		c0-1.8,0.3-3,1.4-4.1l-1.9-1.6c-1.3,1.5-1.9,3.3-1.9,5.7c0,5.1,4.2,9.2,9.3,9.2c0.8,0,1.6,0,2.5-0.2c1.2,1.1,5,4.4,5,4.4l5.1-4.5
		c0.8,0.2,1.6,0.3,2.4,0.3c5.1,0,9.3-4.1,9.3-9.2C116,10.5,115.3,8.4,113.9,6.8z M106.6,9.6c0.4,0,0.8,0.1,1.2,0.2
		c-0.1,0-0.3,0-0.4,0c-1.1,0-2,0.9-2,2s0.9,2,2,2s2-0.9,2-2c0-0.2,0-0.4-0.1-0.6c0.2,0.4,0.4,0.9,0.4,1.5c0,1.7-1.4,3-3,3
		c-1.7,0-3-1.4-3-3C103.6,11,104.9,9.6,106.6,9.6z M91.6,15.7c-1.7,0-3-1.4-3-3c0-1.7,1.4-3,3-3c0.4,0,0.8,0.1,1.2,0.2
		c-0.1,0-0.3,0-0.4,0c-1.1,0-2,0.9-2,2s0.9,2,2,2s2-0.9,2-2c0-0.2,0-0.4-0.1-0.6c0.3,0.4,0.4,1,0.4,1.5
		C94.6,14.3,93.3,15.7,91.6,15.7z"/>
	<path class="st0" d="M115.7,21.9c0-0.4-0.2-0.4-0.5-0.4h-0.6v1.3h0.3v-0.5h0.2l0.3,0.5h0.3l-0.3-0.5
		C115.6,22.3,115.7,22.1,115.7,21.9z M115.2,22h-0.4v-0.3h0.3c0.1,0,0.3,0,0.3,0.1C115.5,22,115.4,22,115.2,22z"/>
	<path class="st0" d="M115.1,20.9c-0.7,0-1.3,0.6-1.3,1.3s0.6,1.3,1.3,1.3c0.7,0,1.3-0.6,1.3-1.3C116.4,21.4,115.8,20.9,115.1,20.9z
		 M115.1,23.2c-0.6,0-1-0.4-1-1s0.4-1,1-1s1,0.4,1,1C116.1,22.7,115.7,23.2,115.1,23.2z"/>
</g>
<path class="st0" d="M2.2,4.6c-0.1-0.4-0.6-0.8-1-0.8H0V0.4h10.6v3.4H8.3l2.8,12.1h0.1L15,0.4h4.5l3.7,15.5h0.1l2.4-9.8
	c0.4-1.6,0.2-2.3-1.2-2.3h-0.9V0.4H33v3.4h-0.9c-0.5,0-1.1,0.4-1.2,1l-4.8,18.4h-6.4l-3.2-13.1h-0.1l-3.2,13.1H6.8L2.2,4.6z"/>
<path class="st0" d="M31.9,11.9c0-7.6,4.3-11.8,11.4-11.8c1.7,0,3,0.2,3.7,0.3h4.4v7.5h-4l-0.6-3.3c-0.6-0.2-1.6-0.4-2.8-0.4
	c-3.2,0-5.4,2.1-5.4,7.5c0,5.2,1.5,8,4.8,8c1.1,0,1.8-0.1,2.4-0.3v-4h-2v-3.3h9.5v3.4h-0.7c-0.5,0-0.9,0.6-0.9,1v6.9h-3.2
	c0,0-0.3-0.7-0.9-0.7c-1.2,0.6-2.7,1-4.7,1C35.8,23.5,31.9,19.4,31.9,11.9"/>
<path class="st0" d="M55.3,14.6V4.7c0-0.4-0.5-0.9-0.9-0.9h-1.1V0.4H64v3.4h-2.4V15c0,3.5,1.4,4.5,4,4.5s4-1.1,4-4.5V3.8h-2.4V0.4h9
	v3.4h-1c-0.4,0-0.9,0.6-0.9,0.9v9.9c0,5.8-3,8.8-9.3,8.8C58.6,23.5,55.3,20.4,55.3,14.6"/>
</svg>
